<svg version="1.1" id="Layer_1" xmlns="http://www.w3.org/2000/svg" xmlns:xlink="http://www.w3.org/1999/xlink" x="0px" y="0px"
	 width="100%" viewBox="0 0 500 500" enable-background="new 0 0 500 500" xml:space="preserve">
<path fill="#000000" opacity="1.000000" stroke="none" 
	d="
M330.000000,501.000000 
	C220.000031,501.000000 110.500053,501.000000 1.000059,501.000000 
	C1.000039,334.333405 1.000039,167.666794 1.000020,1.000148 
	C167.666565,1.000099 334.333130,1.000099 500.999756,1.000049 
	C500.999847,167.666519 500.999847,334.333038 500.999939,500.999786 
	C444.166656,501.000000 387.333344,501.000000 330.000000,501.000000 
M201.927017,215.406097 
	C201.574738,215.321548 201.222458,215.236984 200.283005,214.807404 
	C187.722168,200.628677 176.994370,185.211624 169.420715,167.796005 
	C165.494308,158.767197 162.948532,149.264801 164.063217,139.288452 
	C164.928528,131.543930 165.510056,126.727180 175.745132,125.181412 
	C181.483414,124.314789 187.664169,124.889824 193.414200,126.006531 
	C199.190109,127.128250 204.598282,130.047684 210.339737,131.497681 
	C212.199387,131.967331 214.602844,130.283752 216.757553,129.585114 
	C215.998077,127.778450 215.695496,124.895264 214.402206,124.346375 
	C207.851608,121.566254 201.202057,118.574379 194.281708,117.234337 
	C187.243668,115.871513 179.851578,116.292229 172.610306,116.067535 
	C171.387985,116.029602 170.081314,116.530685 168.920258,117.030457 
	C155.707581,122.717949 152.364395,138.492569 154.414688,149.807709 
	C156.644165,162.111694 161.499283,173.422333 167.605286,184.399826 
	C175.036041,197.758987 183.879028,210.056625 194.029785,221.297913 
	C209.795502,238.757401 227.341110,254.392288 247.839844,266.146362 
	C262.220581,274.392365 277.311310,281.417694 294.536163,280.955933 
	C312.739746,280.468018 320.607758,267.708160 320.696808,253.194000 
	C320.761688,242.613998 317.187378,232.190491 312.171997,222.602448 
	C309.533752,217.558792 305.749390,217.419846 302.947174,220.979095 
	C305.769775,231.052429 308.857819,240.223831 310.783997,249.633057 
	C311.959900,255.377350 311.021851,261.475006 306.443878,266.022552 
	C298.679749,273.735046 288.748810,273.593353 279.750366,270.603729 
	C270.620453,267.570404 261.536835,264.127747 253.169403,258.361176 
	C241.443222,250.279846 229.112305,243.140350 218.949081,232.522125 
	C218.635086,232.316986 218.321106,232.111832 218.008347,231.994705 
	C218.008347,231.994705 218.096329,231.992416 217.957413,231.445633 
	C217.642029,231.267426 217.326660,231.089233 217.018921,230.985641 
	C217.018921,230.985641 217.093216,230.975433 216.965103,230.431946 
	C216.652161,230.258606 216.339218,230.085266 216.018784,229.981064 
	C216.018784,229.981064 216.087830,229.972733 215.963638,229.429947 
	C215.651413,229.257324 215.339203,229.084702 215.018829,228.981018 
	C215.018829,228.981018 215.087692,228.972229 214.963760,228.430084 
	C214.652039,228.257462 214.340317,228.084839 214.019089,227.980789 
	C214.019089,227.980789 214.087601,227.970749 213.963226,227.429108 
	C213.651596,227.256790 213.339981,227.084473 213.019104,226.980911 
	C213.019104,226.980911 213.087845,226.971710 212.963501,226.429596 
	C212.651657,226.257080 212.339798,226.084564 212.019028,225.980850 
	C212.019028,225.980850 212.087738,225.971359 211.963684,225.429825 
	C211.652390,225.256958 211.341110,225.084091 211.019791,224.979889 
	C211.019791,224.979889 211.088226,224.968323 210.963547,224.429184 
	C210.653610,224.256729 210.343658,224.084259 210.020065,223.979935 
	C210.020065,223.979935 210.088165,223.966171 209.962357,223.427139 
	C209.651917,223.255310 209.341476,223.083466 209.019943,222.980118 
	C209.019943,222.980118 209.088486,222.969406 208.963303,222.428940 
	C208.652344,222.256531 208.341400,222.084137 208.019730,221.980194 
	C208.019730,221.980194 208.088150,221.969147 207.963196,221.428787 
	C207.652298,221.256454 207.341415,221.084106 207.019592,220.980179 
	C207.019592,220.980179 207.087830,220.968124 206.963287,220.428818 
	C206.653137,220.256714 206.342972,220.084610 206.019501,219.980484 
	C206.019501,219.980484 206.087463,219.967087 205.962540,219.427612 
	C205.651993,219.255814 205.341446,219.084000 205.019562,218.980499 
	C205.019562,218.980499 205.087921,218.969528 204.963226,218.428894 
	C204.652206,218.256592 204.341171,218.084274 204.019547,217.980469 
	C204.019547,217.980469 204.088058,217.970016 203.963074,217.428726 
	C203.651581,217.256287 203.340073,217.083847 203.019699,216.980453 
	C203.019699,216.980453 203.088867,216.972549 202.962860,216.428650 
	C202.649796,216.254898 202.336716,216.081131 202.016647,215.978790 
	C202.016647,215.978790 202.088364,215.981262 201.927017,215.406097 
M310.634430,181.177582 
	C306.287750,182.010834 301.957825,182.970886 297.577576,183.550140 
	C296.863464,183.644547 295.497559,182.204666 295.158081,181.223129 
	C290.673767,168.258316 282.941620,157.784592 272.053802,149.397568 
	C257.062958,137.849930 239.899368,135.845856 222.162354,138.604446 
	C204.579788,141.339020 191.901733,152.165604 182.066788,166.602768 
	C179.491547,170.383118 177.400818,174.093323 179.584946,178.771896 
	C183.449387,179.720139 186.001572,178.429749 187.666016,174.839798 
	C191.586929,166.383072 197.910538,159.962875 205.668060,155.047256 
	C219.288269,146.416702 233.867416,143.275192 249.705704,148.036484 
	C264.514740,152.488327 275.572083,161.478928 282.892487,175.063507 
	C284.134094,177.367554 285.108246,179.815735 286.205994,182.197327 
	C281.439453,181.650223 277.817291,180.292938 274.209412,178.898651 
	C256.011871,171.865875 237.826889,164.800476 219.613800,157.808243 
	C216.749939,156.708755 213.813751,155.598236 210.812714,155.148071 
	C209.509094,154.952515 207.956650,156.415909 206.517212,157.125824 
	C207.278595,158.517227 207.688507,160.443802 208.858887,161.212479 
	C216.030411,165.922714 223.394226,170.338898 230.655014,174.914871 
	C238.140656,179.632568 246.137726,183.736221 251.457947,191.630081 
	C248.273804,192.206436 245.255905,192.361267 242.520081,193.320526 
	C233.942474,196.328110 233.095459,194.580688 228.904327,188.413208 
	C225.117737,182.841080 221.234543,181.126038 216.616669,182.863068 
	C216.616669,186.132355 216.616669,189.322708 216.616669,192.892059 
	C211.284332,190.724075 206.479538,188.635712 201.560669,186.864044 
	C200.306061,186.412170 198.689865,186.964279 197.239792,187.055115 
	C197.762482,188.505234 197.905334,190.305939 198.868515,191.349487 
	C205.965637,199.038803 213.187744,206.614624 220.476349,214.123428 
	C221.610535,215.291840 223.437302,216.803970 224.665039,216.586121 
	C225.948532,216.358383 227.476028,214.389221 227.871902,212.907440 
	C228.767303,209.555893 230.419113,208.609741 233.897018,208.741974 
	C242.331833,209.062653 250.790436,208.704056 259.233551,208.889221 
	C262.069031,208.951401 265.144714,209.274277 267.661621,210.444077 
	C273.949432,213.366486 277.240967,218.260513 276.054108,225.598404 
	C275.364838,229.859818 277.689453,234.841431 273.416565,238.207672 
	C268.923523,241.747360 264.209717,245.012207 259.524078,248.299820 
	C256.896912,250.143143 254.400070,252.558426 256.406219,255.515167 
	C257.271362,256.790222 261.582977,257.105408 263.369354,256.118927 
	C268.771149,253.135925 274.269928,249.898499 278.706421,245.682236 
	C289.747223,235.189407 295.881775,221.942062 297.907288,206.868179 
	C298.316132,203.825668 299.540436,202.960953 302.602753,202.571930 
	C309.099091,201.746689 315.647369,200.647186 321.896637,198.746857 
	C328.466095,196.749176 334.885773,194.034286 341.035217,190.961151 
	C344.961578,188.999008 344.971954,184.831589 341.291046,183.246948 
	C333.005585,179.680069 324.683594,175.302399 315.281311,180.016052 
	C314.134857,180.590790 312.739777,180.669449 310.634430,181.177582 
M185.161713,221.189987 
	C184.794464,219.922043 184.460953,218.643143 184.053543,217.388229 
	C182.932755,213.936005 180.933319,210.779449 176.972260,212.343933 
	C173.306702,213.791733 175.068634,217.264420 175.841125,220.074921 
	C179.722260,234.195740 188.988739,244.448380 200.485672,252.578873 
	C205.461227,256.097504 211.798630,257.760681 217.648987,259.908356 
	C218.721725,260.302155 221.287201,259.292175 221.636917,258.358429 
	C222.140335,257.014282 221.619995,254.929199 220.831909,253.568436 
	C220.163651,252.414627 218.604568,251.534424 217.254379,251.055008 
	C202.516174,245.822067 192.015076,236.032715 185.161713,221.189987 
z"/>
<path fill="#294E61" opacity="1.000000" stroke="none" 
	d="
M311.047180,181.077789 
	C312.739777,180.669449 314.134857,180.590790 315.281311,180.016052 
	C324.683594,175.302399 333.005585,179.680069 341.291046,183.246948 
	C344.971954,184.831589 344.961578,188.999008 341.035217,190.961151 
	C334.885773,194.034286 328.466095,196.749176 321.896637,198.746857 
	C315.647369,200.647186 309.099091,201.746689 302.602753,202.571930 
	C299.540436,202.960953 298.316132,203.825668 297.907288,206.868179 
	C295.881775,221.942062 289.747223,235.189407 278.706421,245.682236 
	C274.269928,249.898499 268.771149,253.135925 263.369354,256.118927 
	C261.582977,257.105408 257.271362,256.790222 256.406219,255.515167 
	C254.400070,252.558426 256.896912,250.143143 259.524078,248.299820 
	C264.209717,245.012207 268.923523,241.747360 273.416565,238.207672 
	C277.689453,234.841431 275.364838,229.859818 276.054108,225.598404 
	C277.240967,218.260513 273.949432,213.366486 267.661621,210.444077 
	C265.144714,209.274277 262.069031,208.951401 259.233551,208.889221 
	C250.790436,208.704056 242.331833,209.062653 233.897018,208.741974 
	C230.419113,208.609741 228.767303,209.555893 227.871902,212.907440 
	C227.476028,214.389221 225.948532,216.358383 224.665039,216.586121 
	C223.437302,216.803970 221.610535,215.291840 220.476349,214.123428 
	C213.187744,206.614624 205.965637,199.038803 198.868515,191.349487 
	C197.905334,190.305939 197.762482,188.505234 197.239792,187.055115 
	C198.689865,186.964279 200.306061,186.412170 201.560669,186.864044 
	C206.479538,188.635712 211.284332,190.724075 216.616669,192.892059 
	C216.616669,189.322708 216.616669,186.132355 216.616669,182.863068 
	C221.234543,181.126038 225.117737,182.841080 228.904327,188.413208 
	C233.095459,194.580688 233.942474,196.328110 242.520081,193.320526 
	C245.255905,192.361267 248.273804,192.206436 251.457947,191.630081 
	C246.137726,183.736221 238.140656,179.632568 230.655014,174.914871 
	C223.394226,170.338898 216.030411,165.922714 208.858887,161.212479 
	C207.688507,160.443802 207.278595,158.517227 206.517212,157.125824 
	C207.956650,156.415909 209.509094,154.952515 210.812714,155.148071 
	C213.813751,155.598236 216.749939,156.708755 219.613800,157.808243 
	C237.826889,164.800476 256.011871,171.865875 274.209412,178.898651 
	C277.817291,180.292938 281.439453,181.650223 286.205994,182.197327 
	C285.108246,179.815735 284.134094,177.367554 282.892487,175.063507 
	C275.572083,161.478928 264.514740,152.488327 249.705704,148.036484 
	C233.867416,143.275192 219.288269,146.416702 205.668060,155.047256 
	C197.910538,159.962875 191.586929,166.383072 187.666016,174.839798 
	C186.001572,178.429749 183.449387,179.720139 179.584946,178.771896 
	C177.400818,174.093323 179.491547,170.383118 182.066788,166.602768 
	C191.901733,152.165604 204.579788,141.339020 222.162354,138.604446 
	C239.899368,135.845856 257.062958,137.849930 272.053802,149.397568 
	C282.941620,157.784592 290.673767,168.258316 295.158081,181.223129 
	C295.497559,182.204666 296.863464,183.644547 297.577576,183.550140 
	C301.957825,182.970886 306.287750,182.010834 311.047180,181.077789 
z"/>
<path fill="#7EE0F9" opacity="1.000000" stroke="none" 
	d="
M218.841492,233.100250 
	C229.112305,243.140350 241.443222,250.279846 253.169403,258.361176 
	C261.536835,264.127747 270.620453,267.570404 279.750366,270.603729 
	C288.748810,273.593353 298.679749,273.735046 306.443878,266.022552 
	C311.021851,261.475006 311.959900,255.377350 310.783997,249.633057 
	C308.857819,240.223831 305.769775,231.052429 302.947174,220.979095 
	C305.749390,217.419846 309.533752,217.558792 312.171997,222.602448 
	C317.187378,232.190491 320.761688,242.613998 320.696808,253.194000 
	C320.607758,267.708160 312.739746,280.468018 294.536163,280.955933 
	C277.311310,281.417694 262.220581,274.392365 247.839844,266.146362 
	C227.341110,254.392288 209.795502,238.757401 194.029785,221.297913 
	C183.879028,210.056625 175.036041,197.758987 167.605286,184.399826 
	C161.499283,173.422333 156.644165,162.111694 154.414688,149.807709 
	C152.364395,138.492569 155.707581,122.717949 168.920258,117.030457 
	C170.081314,116.530685 171.387985,116.029602 172.610306,116.067535 
	C179.851578,116.292229 187.243668,115.871513 194.281708,117.234337 
	C201.202057,118.574379 207.851608,121.566254 214.402206,124.346375 
	C215.695496,124.895264 215.998077,127.778450 216.757553,129.585114 
	C214.602844,130.283752 212.199387,131.967331 210.339737,131.497681 
	C204.598282,130.047684 199.190109,127.128250 193.414200,126.006531 
	C187.664169,124.889824 181.483414,124.314789 175.745132,125.181412 
	C165.510056,126.727180 164.928528,131.543930 164.063217,139.288452 
	C162.948532,149.264801 165.494308,158.767197 169.420715,167.796005 
	C176.994370,185.211624 187.722168,200.628677 200.723862,215.191345 
	C201.472595,215.710632 201.780487,215.845947 202.088364,215.981262 
	C202.088364,215.981262 202.016647,215.978790 202.071198,216.224243 
	C202.446777,216.637314 202.767822,216.804932 203.088867,216.972549 
	C203.088867,216.972549 203.019699,216.980453 203.066956,217.230652 
	C203.438812,217.643906 203.763443,217.806961 204.088058,217.970016 
	C204.088058,217.970016 204.019547,217.980469 204.063110,218.232742 
	C204.433762,218.646515 204.760834,218.808029 205.087921,218.969528 
	C205.087921,218.969528 205.019562,218.980499 205.060944,219.235001 
	C205.430695,219.648697 205.759079,219.807892 206.087463,219.967087 
	C206.087463,219.967087 206.019501,219.980484 206.057068,220.236160 
	C206.425690,220.650589 206.756760,220.809357 207.087830,220.968124 
	C207.087830,220.968124 207.019592,220.980179 207.062683,221.232849 
	C207.433243,221.646713 207.760696,221.807938 208.088150,221.969147 
	C208.088150,221.969147 208.019730,221.980194 208.063019,222.232544 
	C208.433701,222.646408 208.761093,222.807907 209.088486,222.969406 
	C209.088486,222.969406 209.019943,222.980118 209.061584,223.234741 
	C209.431534,223.648285 209.759842,223.807220 210.088165,223.966171 
	C210.088165,223.966171 210.020065,223.979935 210.056656,224.235748 
	C210.424911,224.650497 210.756561,224.809418 211.088226,224.968323 
	C211.088226,224.968323 211.019791,224.979889 211.065033,225.230621 
	C211.436096,225.644684 211.761917,225.808014 212.087738,225.971359 
	C212.087738,225.971359 212.019028,225.980850 212.067200,226.230072 
	C212.439529,226.643433 212.763687,226.807571 213.087845,226.971710 
	C213.087845,226.971710 213.019104,226.980911 213.066132,227.231110 
	C213.437958,227.644455 213.762787,227.807602 214.087601,227.970749 
	C214.087601,227.970749 214.019089,227.980789 214.065964,228.230423 
	C214.437790,228.644119 214.762741,228.808167 215.087692,228.972229 
	C215.087692,228.972229 215.018829,228.981018 215.069061,229.228806 
	C215.442154,229.641983 215.764984,229.807358 216.087830,229.972733 
	C216.087830,229.972733 216.018784,229.981064 216.071045,230.228043 
	C216.446625,230.641830 216.769913,230.808624 217.093216,230.975433 
	C217.093216,230.975433 217.018921,230.985641 217.104095,231.207245 
	C217.491623,231.616684 217.793976,231.804550 218.096329,231.992416 
	C218.096329,231.992416 218.008347,231.994705 218.090912,232.185760 
	C218.396149,232.617981 218.618820,232.859116 218.841492,233.100250 
z"/>
<path fill="#2C5061" opacity="1.000000" stroke="none" 
	d="
M185.334381,221.531433 
	C192.015076,236.032715 202.516174,245.822067 217.254379,251.055008 
	C218.604568,251.534424 220.163651,252.414627 220.831909,253.568436 
	C221.619995,254.929199 222.140335,257.014282 221.636917,258.358429 
	C221.287201,259.292175 218.721725,260.302155 217.648987,259.908356 
	C211.798630,257.760681 205.461227,256.097504 200.485672,252.578873 
	C188.988739,244.448380 179.722260,234.195740 175.841125,220.074921 
	C175.068634,217.264420 173.306702,213.791733 176.972260,212.343933 
	C180.933319,210.779449 182.932755,213.936005 184.053543,217.388229 
	C184.460953,218.643143 184.794464,219.922043 185.334381,221.531433 
z"/>
<path fill="#D9F7FE" opacity="1.000000" stroke="none" 
	d="
M218.895294,232.811188 
	C218.618820,232.859116 218.396149,232.617981 218.090302,232.141754 
	C218.321106,232.111832 218.635086,232.316986 218.895294,232.811188 
z"/>
<path fill="#D9F7FE" opacity="1.000000" stroke="none" 
	d="
M218.026871,231.719025 
	C217.793976,231.804550 217.491623,231.616684 217.100281,231.169922 
	C217.326660,231.089233 217.642029,231.267426 218.026871,231.719025 
z"/>
<path fill="#D9F7FE" opacity="1.000000" stroke="none" 
	d="
M217.029160,230.703690 
	C216.769913,230.808624 216.446625,230.641830 216.074799,230.193481 
	C216.339218,230.085266 216.652161,230.258606 217.029160,230.703690 
z"/>
<path fill="#D9F7FE" opacity="1.000000" stroke="none" 
	d="
M216.025726,229.701340 
	C215.764984,229.807358 215.442154,229.641983 215.073151,229.194336 
	C215.339203,229.084702 215.651413,229.257324 216.025726,229.701340 
z"/>
<path fill="#D9F7FE" opacity="1.000000" stroke="none" 
	d="
M215.025726,228.701157 
	C214.762741,228.808167 214.437790,228.644119 214.070709,228.196136 
	C214.340317,228.084839 214.652039,228.257462 215.025726,228.701157 
z"/>
<path fill="#D9F7FE" opacity="1.000000" stroke="none" 
	d="
M214.025421,227.699921 
	C213.762787,227.807602 213.437958,227.644455 213.070740,227.196747 
	C213.339981,227.084473 213.651596,227.256790 214.025421,227.699921 
z"/>
<path fill="#D9F7FE" opacity="1.000000" stroke="none" 
	d="
M213.025665,226.700653 
	C212.763687,226.807571 212.439529,226.643433 212.071655,226.195679 
	C212.339798,226.084564 212.651657,226.257080 213.025665,226.700653 
z"/>
<path fill="#D9F7FE" opacity="1.000000" stroke="none" 
	d="
M212.025711,225.700592 
	C211.761917,225.808014 211.436096,225.644684 211.070038,225.196289 
	C211.341110,225.084091 211.652390,225.256958 212.025711,225.700592 
z"/>
<path fill="#D9F7FE" opacity="1.000000" stroke="none" 
	d="
M211.025879,224.698761 
	C210.756561,224.809418 210.424911,224.650497 210.063477,224.201691 
	C210.343658,224.084259 210.653610,224.256729 211.025879,224.698761 
z"/>
<path fill="#D9F7FE" opacity="1.000000" stroke="none" 
	d="
M210.025269,223.696655 
	C209.759842,223.807220 209.431534,223.648285 209.067123,223.200500 
	C209.341476,223.083466 209.651917,223.255310 210.025269,223.696655 
z"/>
<path fill="#D9F7FE" opacity="1.000000" stroke="none" 
	d="
M209.025894,222.699173 
	C208.761093,222.807907 208.433701,222.646408 208.068375,222.198318 
	C208.341400,222.084137 208.652344,222.256531 209.025894,222.699173 
z"/>
<path fill="#D9F7FE" opacity="1.000000" stroke="none" 
	d="
M208.025665,221.698975 
	C207.760696,221.807938 207.433243,221.646713 207.068161,221.198639 
	C207.341415,221.084106 207.652298,221.256454 208.025665,221.698975 
z"/>
<path fill="#D9F7FE" opacity="1.000000" stroke="none" 
	d="
M207.025558,220.698471 
	C206.756760,220.809357 206.425690,220.650589 206.063721,220.202179 
	C206.342972,220.084610 206.653137,220.256714 207.025558,220.698471 
z"/>
<path fill="#D9F7FE" opacity="1.000000" stroke="none" 
	d="
M206.024994,219.697357 
	C205.759079,219.807892 205.430695,219.648697 205.066605,219.200851 
	C205.341446,219.084000 205.651993,219.255814 206.024994,219.697357 
z"/>
<path fill="#D9F7FE" opacity="1.000000" stroke="none" 
	d="
M205.025574,218.699219 
	C204.760834,218.808029 204.433762,218.646515 204.068405,218.198486 
	C204.341171,218.084274 204.652206,218.256592 205.025574,218.699219 
z"/>
<path fill="#D9F7FE" opacity="1.000000" stroke="none" 
	d="
M204.025574,217.699371 
	C203.763443,217.806961 203.438812,217.643906 203.071381,217.196136 
	C203.340073,217.083847 203.651581,217.256287 204.025574,217.699371 
z"/>
<path fill="#D9F7FE" opacity="1.000000" stroke="none" 
	d="
M203.025864,216.700592 
	C202.767822,216.804932 202.446777,216.637314 202.074692,216.188538 
	C202.336716,216.081131 202.649796,216.254898 203.025864,216.700592 
z"/>
<path fill="#D9F7FE" opacity="1.000000" stroke="none" 
	d="
M202.007690,215.693680 
	C201.780487,215.845947 201.472595,215.710632 201.017456,215.363861 
	C201.222458,215.236984 201.574738,215.321548 202.007690,215.693680 
z"/>
</svg>